<?xml version="1.0" encoding="UTF-8"?>
<svg xmlns="http://www.w3.org/2000/svg" width="542" height="300" viewBox="0 0 542 300" fill="none">
  <mask id="mask0_451_968" style="mask-type:luminance" maskUnits="userSpaceOnUse" x="0" y="0" width="542" height="300">
    <path d="M0.511536 0H541.488V300H0.511536V0Z" fill="white"></path>
  </mask>
  <g mask="url(#mask0_451_968)">
    <path d="M372.572 142.694H377.278V162.781H372.572V142.694ZM372.041 136.515C372.041 134.919 373.268 133.815 374.945 133.815C376.624 133.815 377.851 134.919 377.851 136.515C377.851 138.069 376.624 139.175 374.945 139.175C373.268 139.175 372.041 138.069 372.041 136.515Z" fill="white"></path>
    <path d="M392.189 159.426C395.135 159.426 396.935 156.767 396.935 152.757C396.935 148.707 395.135 146.049 392.189 146.049C389.244 146.049 387.483 148.707 387.483 152.757C387.483 156.767 389.244 159.426 392.189 159.426ZM392.189 142.201C397.221 142.201 401.764 146.049 401.764 152.757C401.764 159.426 397.221 163.274 392.189 163.274C387.198 163.274 382.656 159.426 382.656 152.757C382.656 146.049 387.198 142.201 392.189 142.201Z" fill="white"></path>
    <path d="M407.255 142.693H411.14L411.467 145.393H411.634C413.434 143.635 415.478 142.201 418.219 142.201C422.515 142.201 424.399 145.106 424.399 150.181V162.781H419.692V150.793C419.692 147.478 418.753 146.251 416.542 146.251C414.782 146.251 413.636 147.112 411.961 148.747V162.781H407.255V142.693Z" fill="white"></path>
    <path d="M437.317 159.59C438.952 159.59 440.221 158.772 441.694 157.38V152.88C436.252 153.576 434.452 155.007 434.452 157.013C434.452 158.813 435.638 159.59 437.317 159.59ZM441.694 149.934C441.652 147.807 440.752 146.005 438.054 146.005C436.048 146.005 434.165 146.907 432.406 147.97L430.688 144.82C432.898 143.43 435.719 142.201 438.913 142.201C443.944 142.201 446.398 145.27 446.398 150.874V162.78H442.554L442.185 160.572H442.06C440.26 162.084 438.217 163.274 435.844 163.274C432.325 163.274 429.871 160.899 429.871 157.38C429.871 153.084 433.469 150.834 441.694 149.934Z" fill="white"></path>
    <path d="M452.844 133.897H457.55V157.872C457.55 159.018 458.081 159.426 458.571 159.426C458.777 159.426 458.94 159.426 459.308 159.345L459.921 162.861C459.348 163.107 458.529 163.274 457.425 163.274C454.071 163.274 452.844 161.105 452.844 157.626V133.897Z" fill="white"></path>
    <path d="M304.353 176.932H309.591L314.418 190.105L316.178 195.18H316.341L318.06 190.105L322.803 176.932H328.041V203.691H323.58V191.457C323.58 188.96 323.949 185.401 324.195 182.947H324.033L321.864 189.043L317.243 201.195H315.033L310.408 189.043L308.283 182.947H308.118C308.364 185.401 308.733 188.96 308.733 191.457V203.691H304.353V176.932Z" fill="white"></path>
    <path d="M343.532 200.335C346.478 200.335 348.278 197.677 348.278 193.667C348.278 189.614 346.478 186.956 343.532 186.956C340.586 186.956 338.826 189.614 338.826 193.667C338.826 197.677 340.586 200.335 343.532 200.335ZM343.532 183.11C348.563 183.11 353.107 186.956 353.107 193.667C353.107 200.335 348.563 204.181 343.532 204.181C338.54 204.181 333.999 200.335 333.999 193.667C333.999 186.956 338.54 183.11 343.532 183.11Z" fill="white"></path>
    <path d="M358.599 183.602H362.485L362.812 186.302H362.979C364.776 184.543 366.822 183.112 369.564 183.112C373.86 183.112 375.743 186.016 375.743 191.089V203.691H371.037V191.704C371.037 188.389 370.097 187.162 367.887 187.162C366.126 187.162 364.981 188.02 363.306 189.656V203.691H358.599V183.602Z" fill="white"></path>
    <path d="M382.228 183.602H386.934V203.692H382.228V183.602ZM381.697 177.425C381.697 175.827 382.924 174.723 384.601 174.723C386.278 174.723 387.505 175.827 387.505 177.425C387.505 178.979 386.278 180.083 384.601 180.083C382.924 180.083 381.697 178.979 381.697 177.425Z" fill="white"></path>
    <path d="M394.279 187.325H391.414V183.808L394.525 183.602L395.098 178.119H399.025V183.602H404.137V187.325H399.025V196.9C399.025 199.271 399.925 200.416 401.848 200.416C402.543 200.416 403.36 200.212 403.935 199.966L404.752 203.444C403.648 203.812 402.256 204.181 400.66 204.181C395.995 204.181 394.279 201.235 394.279 196.9V187.325Z" fill="white"></path>
    <path d="M416.984 200.335C419.93 200.335 421.73 197.677 421.73 193.667C421.73 189.614 419.93 186.956 416.984 186.956C414.038 186.956 412.277 189.614 412.277 193.667C412.277 197.677 414.038 200.335 416.984 200.335ZM416.984 183.11C422.015 183.11 426.559 186.956 426.559 193.667C426.559 200.335 422.015 204.181 416.984 204.181C411.992 204.181 407.45 200.335 407.45 193.667C407.45 186.956 411.992 183.11 416.984 183.11Z" fill="white"></path>
    <path d="M432.049 183.602H435.935L436.262 187.162H436.428C437.86 184.543 439.987 183.112 442.114 183.112C443.137 183.112 443.791 183.233 444.405 183.52L443.587 187.612C442.891 187.406 442.36 187.285 441.499 187.285C439.906 187.285 437.983 188.389 436.756 191.416V203.691H432.049V183.602Z" fill="white"></path>
    <path d="M448.441 183.602H453.147V203.692H448.441V183.602ZM447.909 177.425C447.909 175.827 449.136 174.723 450.813 174.723C452.493 174.723 453.72 175.827 453.72 177.425C453.72 178.979 452.493 180.083 450.813 180.083C449.136 180.083 447.909 178.979 447.909 177.425Z" fill="white"></path>
    <path d="M459.834 183.602H463.72L464.047 186.302H464.214C466.014 184.543 468.057 183.112 470.799 183.112C475.095 183.112 476.978 186.016 476.978 191.089V203.691H472.272V191.704C472.272 188.389 471.332 187.162 469.122 187.162C467.361 187.162 466.216 188.02 464.541 189.656V203.691H459.834V183.602Z" fill="white"></path>
    <path d="M494.118 190.311C494.118 187.816 492.603 186.343 490.639 186.343C488.676 186.343 487.122 187.774 487.122 190.311C487.122 192.889 488.676 194.361 490.639 194.361C492.562 194.361 494.118 192.889 494.118 190.311ZM491.13 209.499C494.362 209.499 496.572 207.984 496.572 206.268C496.572 204.711 495.303 204.261 493.014 204.261H490.27C489.166 204.261 488.307 204.18 487.53 203.978C486.466 204.795 485.976 205.695 485.976 206.636C485.976 208.434 487.939 209.499 491.13 209.499ZM484.912 203.034V202.872C483.889 202.218 483.112 201.153 483.112 199.518C483.112 197.961 484.176 196.611 485.32 195.795V195.63C483.972 194.607 482.703 192.684 482.703 190.311C482.703 185.689 486.426 183.111 490.639 183.111C491.743 183.111 492.768 183.316 493.584 183.601H500.784V187.078H497.105C497.757 187.855 498.249 189.084 498.249 190.474C498.249 194.934 494.895 197.307 490.639 197.307C489.78 197.307 488.797 197.143 487.899 196.776C487.284 197.307 486.916 197.799 486.916 198.697C486.916 199.843 487.737 200.539 490.189 200.539H493.749C498.578 200.539 501.112 202.011 501.112 205.491C501.112 209.457 496.939 212.568 490.395 212.568C485.607 212.568 482.047 210.849 482.047 207.33C482.047 205.653 483.07 204.18 484.912 203.034Z" fill="white"></path>
    <path d="M312.986 230.975C316.954 230.975 318.877 229.379 318.877 226.106C318.877 222.752 316.873 221.646 312.986 221.646H309.1V230.975H312.986ZM304.352 217.842H313.354C319.204 217.842 323.54 219.888 323.54 226.106C323.54 232.04 319.123 234.779 313.354 234.779H309.1V244.598H304.352V217.842Z" fill="white"></path>
    <path d="M328.593 224.512H332.478L332.805 228.07H332.972C334.403 225.451 336.53 224.02 338.657 224.02C339.68 224.02 340.334 224.143 340.949 224.428L340.13 228.52C339.434 228.316 338.903 228.193 338.043 228.193C336.449 228.193 334.526 229.297 333.299 232.324V244.599H328.593V224.512Z" fill="white"></path>
    <path d="M352.877 241.243C355.822 241.243 357.622 238.585 357.622 234.575C357.622 230.525 355.822 227.866 352.877 227.866C349.931 227.866 348.17 230.525 348.17 234.575C348.17 238.585 349.931 241.243 352.877 241.243ZM352.877 224.018C357.908 224.018 362.452 227.866 362.452 234.575C362.452 241.243 357.908 245.091 352.877 245.091C347.885 245.091 343.343 241.243 343.343 234.575C343.343 227.866 347.885 224.018 352.877 224.018Z" fill="white"></path>
    <path d="M378.473 231.219C378.473 228.725 376.958 227.252 374.993 227.252C373.031 227.252 371.477 228.684 371.477 231.219C371.477 233.796 373.031 235.269 374.993 235.269C376.916 235.269 378.473 233.796 378.473 231.219ZM375.485 250.409C378.716 250.409 380.927 248.894 380.927 247.175C380.927 245.621 379.658 245.171 377.368 245.171H374.625C373.52 245.171 372.662 245.09 371.885 244.886C370.82 245.702 370.331 246.605 370.331 247.544C370.331 249.344 372.293 250.409 375.485 250.409ZM369.266 243.944V243.78C368.243 243.125 367.466 242.061 367.466 240.425C367.466 238.871 368.531 237.519 369.675 236.702V236.54C368.327 235.517 367.058 233.594 367.058 231.219C367.058 226.596 370.781 224.019 374.993 224.019C376.098 224.019 377.123 224.225 377.939 224.511H385.139V227.988H381.46C382.112 228.765 382.604 229.992 382.604 231.384C382.604 235.844 379.25 238.215 374.993 238.215C374.135 238.215 373.152 238.052 372.254 237.686C371.639 238.215 371.27 238.709 371.27 239.607C371.27 240.752 372.091 241.448 374.543 241.448H378.104C382.933 241.448 385.466 242.921 385.466 246.398C385.466 250.367 381.293 253.477 374.75 253.477C369.962 253.477 366.402 251.757 366.402 248.24C366.402 246.563 367.425 245.09 369.266 243.944Z" fill="white"></path>
    <path d="M389.766 224.512H393.651L393.979 228.07H394.145C395.576 225.451 397.704 224.02 399.831 224.02C400.854 224.02 401.508 224.143 402.122 224.428L401.304 228.52C400.608 228.316 400.076 228.193 399.216 228.193C397.622 228.193 395.699 229.297 394.472 232.324V244.599H389.766V224.512Z" fill="white"></path>
    <path d="M412.624 241.408C414.259 241.408 415.528 240.589 417.001 239.198V234.698C411.559 235.394 409.759 236.825 409.759 238.831C409.759 240.631 410.945 241.408 412.624 241.408ZM417.001 231.752C416.959 229.625 416.059 227.823 413.361 227.823C411.355 227.823 409.472 228.725 407.713 229.789L405.995 226.637C408.205 225.248 411.026 224.019 414.22 224.019C419.251 224.019 421.705 227.087 421.705 232.691V244.598H417.861L417.493 242.389H417.368C415.568 243.902 413.524 245.091 411.151 245.091C407.632 245.091 405.178 242.716 405.178 239.198C405.178 234.902 408.776 232.652 417.001 231.752Z" fill="white"></path>
    <path d="M428.2 224.512H432.085L432.413 227.251H432.579C434.254 225.451 436.219 224.02 438.715 224.02C441.66 224.02 443.338 225.37 444.279 227.62C446.202 225.574 448.206 224.02 450.742 224.02C454.998 224.02 456.963 226.924 456.963 231.999V244.599H452.215V232.612C452.215 229.297 451.235 228.07 449.148 228.07C447.879 228.07 446.488 228.889 444.933 230.566V244.599H440.227V232.612C440.227 229.297 439.248 228.07 437.119 228.07C435.892 228.07 434.46 228.889 432.906 230.566V244.599H428.2V224.512Z" fill="white"></path>
    <mask id="mask1_451_968" style="mask-type:luminance" maskUnits="userSpaceOnUse" x="0" y="0" width="542" height="300">
      <path d="M0.511536 0H541.488V300H0.511536V0Z" fill="white"></path>
    </mask>
    <g mask="url(#mask1_451_968)">
      <path d="M63.6552 133.904C62.8469 136.533 61.7052 138.998 60.0469 141.202L63.6552 133.904Z" fill="white"></path>
      <path d="M63.6552 133.904C62.8469 136.533 61.7052 138.998 60.0469 141.202" stroke="white" stroke-width="0.859" stroke-linecap="round"></path>
    </g>
    <mask id="mask2_451_968" style="mask-type:luminance" maskUnits="userSpaceOnUse" x="0" y="0" width="542" height="300">
      <path d="M0.511536 0H541.488V300H0.511536V0Z" fill="white"></path>
    </mask>
    <g mask="url(#mask2_451_968)">
      <path d="M60.0563 141.21C60.0563 141.21 59.4125 138.525 59.4125 135.385C59.4125 132.243 60.0563 129.9 60.0563 129.9" fill="white"></path>
      <path d="M60.0563 141.21C60.0563 141.21 59.4125 138.525 59.4125 135.385C59.4125 132.243 60.0563 129.9 60.0563 129.9" stroke="white" stroke-width="0.859" stroke-linecap="round"></path>
    </g>
    <mask id="mask3_451_968" style="mask-type:luminance" maskUnits="userSpaceOnUse" x="0" y="0" width="542" height="300">
      <path d="M0.511536 0H541.488V300H0.511536V0Z" fill="white"></path>
    </mask>
    <g mask="url(#mask3_451_968)">
      <path d="M60.0563 141.21C60.0563 141.21 58.2647 139.841 57.1105 137.858C55.9563 135.875 55.4293 133.402 55.4293 133.402" fill="white"></path>
      <path d="M60.0563 141.21C60.0563 141.21 58.2647 139.841 57.1105 137.858C55.9563 135.875 55.4293 133.402 55.4293 133.402" stroke="white" stroke-width="0.859" stroke-linecap="round"></path>
    </g>
    <mask id="mask4_451_968" style="mask-type:luminance" maskUnits="userSpaceOnUse" x="0" y="0" width="542" height="300">
      <path d="M0.511536 0H541.488V300H0.511536V0Z" fill="white"></path>
    </mask>
    <g mask="url(#mask4_451_968)">
      <path d="M241.455 132.246C242.261 134.875 243.405 137.339 245.061 139.546L241.455 132.246Z" fill="white"></path>
      <path d="M241.455 132.246C242.261 134.875 243.405 137.339 245.061 139.546" stroke="white" stroke-width="0.859" stroke-linecap="round"></path>
    </g>
    <mask id="mask5_451_968" style="mask-type:luminance" maskUnits="userSpaceOnUse" x="0" y="0" width="542" height="300">
      <path d="M0.511536 0H541.488V300H0.511536V0Z" fill="white"></path>
    </mask>
    <g mask="url(#mask5_451_968)">
      <path d="M245.052 139.552C245.052 139.552 245.696 136.865 245.696 133.725C245.696 130.584 245.052 128.24 245.052 128.24" fill="white"></path>
      <path d="M245.052 139.552C245.052 139.552 245.696 136.865 245.696 133.725C245.696 130.584 245.052 128.24 245.052 128.24" stroke="white" stroke-width="0.859" stroke-linecap="round"></path>
    </g>
    <mask id="mask6_451_968" style="mask-type:luminance" maskUnits="userSpaceOnUse" x="0" y="0" width="542" height="300">
      <path d="M0.511536 0H541.488V300H0.511536V0Z" fill="white"></path>
    </mask>
    <g mask="url(#mask6_451_968)">
      <path d="M245.052 139.552C245.052 139.552 246.846 138.182 248 136.2C249.154 134.215 249.679 131.744 249.679 131.744" fill="white"></path>
      <path d="M245.052 139.552C245.052 139.552 246.846 138.182 248 136.2C249.154 134.215 249.679 131.744 249.679 131.744" stroke="white" stroke-width="0.859" stroke-linecap="round"></path>
    </g>
    <mask id="mask7_451_968" style="mask-type:luminance" maskUnits="userSpaceOnUse" x="0" y="0" width="542" height="300">
      <path d="M0.511536 0H541.488V300H0.511536V0Z" fill="white"></path>
    </mask>
    <g mask="url(#mask7_451_968)">
      <path d="M304.203 68.3949C305.484 69.4865 307.122 70.2511 308.595 70.2511C310.259 70.2511 311.078 69.5949 311.078 68.5303C311.078 67.4136 310.068 67.0574 308.513 66.4032L306.195 65.422C304.368 64.6865 302.622 63.1574 302.622 60.5678C302.622 57.622 305.241 55.2761 308.949 55.2761C310.997 55.2761 313.151 56.0949 314.676 57.622L312.632 60.1574C311.457 59.2574 310.368 58.7407 308.949 58.7407C307.557 58.7407 306.684 59.3407 306.684 60.349C306.684 61.4407 307.859 61.822 309.386 62.449L311.678 63.3761C313.832 64.249 315.195 65.6949 315.195 68.2053C315.195 71.149 312.743 73.7136 308.486 73.7136C306.168 73.7136 303.713 72.8407 301.911 71.149L304.203 68.3949Z" fill="white"></path>
    </g>
    <mask id="mask8_451_968" style="mask-type:luminance" maskUnits="userSpaceOnUse" x="0" y="0" width="542" height="300">
      <path d="M0.511536 0H541.488V300H0.511536V0Z" fill="white"></path>
    </mask>
    <g mask="url(#mask8_451_968)">
      <path d="M320.428 55.6026H331.638V58.986H324.438V63.1047H330.603V66.486H324.438V73.386H320.428V55.6026Z" fill="white"></path>
    </g>
    <mask id="mask9_451_968" style="mask-type:luminance" maskUnits="userSpaceOnUse" x="0" y="0" width="542" height="300">
      <path d="M0.511536 0H541.488V300H0.511536V0Z" fill="white"></path>
    </mask>
    <g mask="url(#mask9_451_968)">
      <path d="M344.755 55.6026H355.884V58.986H348.765V62.5568H354.819V65.9131H348.765V70.0047H356.157V73.386H344.755V55.6026Z" fill="white"></path>
    </g>
    <mask id="mask10_451_968" style="mask-type:luminance" maskUnits="userSpaceOnUse" x="0" y="0" width="542" height="300">
      <path d="M0.511536 0H541.488V300H0.511536V0Z" fill="white"></path>
    </mask>
    <g mask="url(#mask10_451_968)">
      <path d="M363.057 68.3949C364.338 69.4865 365.976 70.2511 367.449 70.2511C369.113 70.2511 369.932 69.5949 369.932 68.5303C369.932 67.4136 368.922 67.0574 367.368 66.4032L365.049 65.422C363.222 64.6865 361.476 63.1574 361.476 60.5678C361.476 57.622 364.095 55.2761 367.803 55.2761C369.851 55.2761 372.005 56.0949 373.53 57.622L371.486 60.1574C370.311 59.2574 369.222 58.7407 367.803 58.7407C366.411 58.7407 365.538 59.3407 365.538 60.349C365.538 61.4407 366.713 61.822 368.241 62.449L370.532 63.3761C372.686 64.249 374.049 65.6949 374.049 68.2053C374.049 71.149 371.597 73.7136 367.341 73.7136C365.022 73.7136 362.568 72.8407 360.766 71.149L363.057 68.3949Z" fill="white"></path>
    </g>
    <mask id="mask11_451_968" style="mask-type:luminance" maskUnits="userSpaceOnUse" x="0" y="0" width="542" height="300">
      <path d="M0.511536 0H541.488V300H0.511536V0Z" fill="white"></path>
    </mask>
    <g mask="url(#mask11_451_968)">
      <path d="M382.887 58.985H378.004V55.6017H391.806V58.985H386.923V73.3871H382.887V58.985Z" fill="white"></path>
    </g>
    <mask id="mask12_451_968" style="mask-type:luminance" maskUnits="userSpaceOnUse" x="0" y="0" width="542" height="300">
      <path d="M0.511536 0H541.488V300H0.511536V0Z" fill="white"></path>
    </mask>
    <g mask="url(#mask12_451_968)">
      <path d="M396.553 55.6028H400.589V65.5591C400.589 69.0508 401.68 70.2508 403.672 70.2508C405.661 70.2508 406.807 69.0508 406.807 65.5591V55.6028H410.68V65.1508C410.68 71.1237 408.253 73.7133 403.672 73.7133C399.061 73.7133 396.553 71.1237 396.553 65.1508V55.6028Z" fill="white"></path>
    </g>
    <mask id="mask13_451_968" style="mask-type:luminance" maskUnits="userSpaceOnUse" x="0" y="0" width="542" height="300">
      <path d="M0.511536 0H541.488V300H0.511536V0Z" fill="white"></path>
    </mask>
    <g mask="url(#mask13_451_968)">
      <path d="M424.202 66.0224L423.794 64.3849C423.302 62.612 422.812 60.512 422.348 58.6579H422.24C421.804 60.5391 421.34 62.612 420.848 64.3849L420.412 66.0224H424.202ZM425.023 69.1579H419.594L418.504 73.387H414.412L419.975 55.6037H424.802L430.367 73.387H426.112L425.023 69.1579Z" fill="white"></path>
    </g>
    <mask id="mask14_451_968" style="mask-type:luminance" maskUnits="userSpaceOnUse" x="0" y="0" width="542" height="300">
      <path d="M0.511536 0H541.488V300H0.511536V0Z" fill="white"></path>
    </mask>
    <g mask="url(#mask14_451_968)">
      <path d="M438.769 63.7857H440.842C442.942 63.7857 444.088 62.8857 444.088 61.1399C444.088 59.3941 442.942 58.7941 440.842 58.7941H438.769V63.7857ZM444.388 73.3857L440.98 66.9774H438.769V73.3857H434.759V55.6024H441.169C444.934 55.6024 448.015 56.9128 448.015 61.1399C448.015 63.7587 446.761 65.4232 444.853 66.267L448.888 73.3857H444.388Z" fill="white"></path>
    </g>
    <mask id="mask15_451_968" style="mask-type:luminance" maskUnits="userSpaceOnUse" x="0" y="0" width="542" height="300">
      <path d="M0.511536 0H541.488V300H0.511536V0Z" fill="white"></path>
    </mask>
    <g mask="url(#mask15_451_968)">
      <path d="M456.605 67.0579L451.232 55.6017H455.541L457.122 59.6933C457.614 61.0308 458.078 62.2579 458.568 63.6225H458.678C459.195 62.2579 459.687 61.0308 460.178 59.6933L461.787 55.6017H465.989L460.614 67.0579V73.3871H456.605V67.0579Z" fill="white"></path>
    </g>
    <mask id="mask16_451_968" style="mask-type:luminance" maskUnits="userSpaceOnUse" x="0" y="0" width="542" height="300">
      <path d="M0.511536 0H541.488V300H0.511536V0Z" fill="white"></path>
    </mask>
    <g mask="url(#mask16_451_968)">
      <path d="M301.694 95.1149H306.563L308.894 108.615C309.344 111.479 309.796 114.344 310.205 117.167H310.367C310.94 114.344 311.513 111.438 312.128 108.615L315.401 95.1149H319.534L322.805 108.615C323.419 111.398 323.992 114.302 324.605 117.167H324.769C325.178 114.302 325.628 111.438 326.038 108.615L328.369 95.1149H332.909L327.796 121.871H321.905L318.59 107.798C318.142 105.711 317.732 103.665 317.405 101.621H317.242C316.874 103.665 316.463 105.711 316.013 107.798L312.782 121.871H307.013L301.694 95.1149Z" fill="white"></path>
    </g>
    <mask id="mask17_451_968" style="mask-type:luminance" maskUnits="userSpaceOnUse" x="0" y="0" width="542" height="300">
      <path d="M0.511536 0H541.488V300H0.511536V0Z" fill="white"></path>
    </mask>
    <g mask="url(#mask17_451_968)">
      <path d="M349.324 110.048C349.324 106.856 347.976 104.934 345.235 104.934C342.86 104.934 340.816 106.694 340.408 110.048H349.324ZM345.112 101.292C350.553 101.292 353.416 105.221 353.416 110.825C353.416 111.725 353.335 112.544 353.212 113.036H340.447C340.858 116.675 343.147 118.721 346.38 118.721C348.097 118.721 349.57 118.19 351.043 117.248L352.639 120.194C350.716 121.463 348.303 122.363 345.766 122.363C340.201 122.363 335.864 118.475 335.864 111.848C335.864 105.302 340.408 101.292 345.112 101.292Z" fill="white"></path>
    </g>
    <mask id="mask18_451_968" style="mask-type:luminance" maskUnits="userSpaceOnUse" x="0" y="0" width="542" height="300">
      <path d="M0.511536 0H541.488V300H0.511536V0Z" fill="white"></path>
    </mask>
    <g mask="url(#mask18_451_968)">
      <path d="M359.6 105.506H356.736V101.99L359.844 101.783L360.419 96.3021H364.346V101.783H369.459V105.506H364.346V115.081C364.346 117.452 365.246 118.598 367.169 118.598C367.865 118.598 368.682 118.394 369.257 118.148L370.073 121.627C368.969 121.996 367.577 122.363 365.982 122.363C361.317 122.363 359.6 119.417 359.6 115.081V105.506Z" fill="white"></path>
    </g>
    <mask id="mask19_451_968" style="mask-type:luminance" maskUnits="userSpaceOnUse" x="0" y="0" width="542" height="300">
      <path d="M0.511536 0H541.488V300H0.511536V0Z" fill="white"></path>
    </mask>
    <g mask="url(#mask19_451_968)">
      <path d="M374.147 92.9879H378.854V116.963C378.854 118.109 379.385 118.517 379.874 118.517C380.081 118.517 380.243 118.517 380.612 118.436L381.224 121.952C380.652 122.198 379.833 122.363 378.729 122.363C375.374 122.363 374.147 120.194 374.147 116.717V92.9879Z" fill="white"></path>
    </g>
    <mask id="mask20_451_968" style="mask-type:luminance" maskUnits="userSpaceOnUse" x="0" y="0" width="542" height="300">
      <path d="M0.511536 0H541.488V300H0.511536V0Z" fill="white"></path>
    </mask>
    <g mask="url(#mask20_451_968)">
      <path d="M392.46 118.681C394.095 118.681 395.364 117.862 396.837 116.47V111.97C391.395 112.666 389.595 114.097 389.595 116.104C389.595 117.904 390.781 118.681 392.46 118.681ZM396.837 109.024C396.795 106.897 395.895 105.097 393.197 105.097C391.191 105.097 389.308 105.997 387.549 107.062L385.831 103.912C388.041 102.52 390.862 101.293 394.056 101.293C399.087 101.293 401.541 104.36 401.541 109.966V121.872H397.697L397.328 119.662H397.203C395.403 121.177 393.36 122.364 390.987 122.364C387.468 122.364 385.014 119.989 385.014 116.47C385.014 112.174 388.612 109.924 396.837 109.024Z" fill="white"></path>
    </g>
    <mask id="mask21_451_968" style="mask-type:luminance" maskUnits="userSpaceOnUse" x="0" y="0" width="542" height="300">
      <path d="M0.511536 0H541.488V300H0.511536V0Z" fill="white"></path>
    </mask>
    <g mask="url(#mask21_451_968)">
      <path d="M408.036 101.784H411.921L412.249 104.484H412.415C414.215 102.726 416.259 101.292 419.001 101.292C423.296 101.292 425.18 104.199 425.18 109.271V121.871H420.474V109.884C420.474 106.569 419.534 105.342 417.324 105.342C415.563 105.342 414.417 106.203 412.742 107.838V121.871H408.036V101.784Z" fill="white"></path>
    </g>
    <mask id="mask22_451_968" style="mask-type:luminance" maskUnits="userSpaceOnUse" x="0" y="0" width="542" height="300">
      <path d="M0.511536 0H541.488V300H0.511536V0Z" fill="white"></path>
    </mask>
    <g mask="url(#mask22_451_968)">
      <path d="M440.02 118.476C441.574 118.476 442.885 117.78 444.233 116.226V106.857C442.841 105.628 441.493 105.18 440.143 105.18C437.564 105.18 435.479 107.593 435.479 111.807C435.479 116.143 437.114 118.476 440.02 118.476ZM439.118 101.293C441.412 101.293 442.841 102.153 444.399 103.503L444.233 100.27V92.9885H448.939V121.872H445.052L444.724 119.703H444.562C443.089 121.176 441.043 122.364 438.874 122.364C433.841 122.364 430.61 118.476 430.61 111.847C430.61 105.301 434.743 101.293 439.118 101.293Z" fill="white"></path>
    </g>
    <mask id="mask23_451_968" style="mask-type:luminance" maskUnits="userSpaceOnUse" x="0" y="0" width="542" height="300">
      <path d="M0.511536 0H541.488V300H0.511536V0Z" fill="white"></path>
    </mask>
    <g mask="url(#mask23_451_968)">
      <path d="M455.916 116.554C457.714 117.943 459.433 118.804 461.479 118.804C463.647 118.804 464.67 117.781 464.67 116.389C464.67 114.712 462.502 113.977 460.374 113.158C457.714 112.174 454.729 110.662 454.729 107.308C454.729 103.789 457.552 101.293 462.052 101.293C464.833 101.293 467.083 102.439 468.72 103.706L466.552 106.57C465.16 105.547 463.729 104.852 462.133 104.852C460.129 104.852 459.187 105.793 459.187 107.062C459.187 108.656 461.193 109.27 463.36 110.047C466.104 111.07 469.131 112.381 469.131 116.143C469.131 119.581 466.389 122.364 461.316 122.364C458.574 122.364 455.67 121.177 453.706 119.581L455.916 116.554Z" fill="white"></path>
    </g>
    <mask id="mask24_451_968" style="mask-type:luminance" maskUnits="userSpaceOnUse" x="0" y="0" width="542" height="300">
      <path d="M0.511536 0H541.488V300H0.511536V0Z" fill="white"></path>
    </mask>
    <g mask="url(#mask24_451_968)">
      <path d="M309.1 148.543H312.904C316.546 148.543 318.55 146.989 318.55 143.96C318.55 140.893 316.546 139.829 312.904 139.829H309.1V148.543ZM318.958 162.781L313.192 152.308H309.1V162.781H304.354V136.024H313.396C318.958 136.024 323.215 137.987 323.215 143.96C323.215 148.051 321.088 150.506 317.896 151.612L324.277 162.781H318.958Z" fill="white"></path>
    </g>
    <mask id="mask25_451_968" style="mask-type:luminance" maskUnits="userSpaceOnUse" x="0" y="0" width="542" height="300">
      <path d="M0.511536 0H541.488V300H0.511536V0Z" fill="white"></path>
    </mask>
    <g mask="url(#mask25_451_968)">
      <path d="M341.139 150.957C341.139 147.765 339.791 145.843 337.05 145.843C334.675 145.843 332.631 147.603 332.223 150.957H341.139ZM336.927 142.201C342.369 142.201 345.231 146.13 345.231 151.734C345.231 152.634 345.15 153.453 345.027 153.945H332.262C332.673 157.584 334.962 159.632 338.196 159.632C339.912 159.632 341.385 159.099 342.858 158.159L344.454 161.105C342.531 162.372 340.119 163.274 337.581 163.274C332.016 163.274 327.679 159.384 327.679 152.757C327.679 146.211 332.223 142.201 336.927 142.201Z" fill="white"></path>
    </g>
    <mask id="mask26_451_968" style="mask-type:luminance" maskUnits="userSpaceOnUse" x="0" y="0" width="542" height="300">
      <path d="M0.511536 0H541.488V300H0.511536V0Z" fill="white"></path>
    </mask>
    <g mask="url(#mask26_451_968)">
      <path d="M361.279 149.402C361.279 146.906 359.764 145.433 357.8 145.433C355.837 145.433 354.283 146.866 354.283 149.402C354.283 151.979 355.837 153.452 357.8 153.452C359.723 153.452 361.279 151.979 361.279 149.402ZM358.292 168.591C361.523 168.591 363.733 167.077 363.733 165.358C363.733 163.804 362.464 163.354 360.175 163.354H357.431C356.327 163.354 355.469 163.273 354.692 163.068C353.627 163.885 353.137 164.787 353.137 165.727C353.137 167.527 355.1 168.591 358.292 168.591ZM352.073 162.127V161.962C351.05 161.308 350.273 160.243 350.273 158.608C350.273 157.054 351.337 155.702 352.481 154.885V154.723C351.133 153.7 349.865 151.775 349.865 149.402C349.865 144.779 353.587 142.202 357.8 142.202C358.904 142.202 359.929 142.406 360.746 142.693H367.946V146.17H364.267C364.919 146.948 365.41 148.175 365.41 149.566C365.41 154.027 362.056 156.398 357.8 156.398C356.942 156.398 355.958 156.235 355.06 155.868C354.446 156.398 354.077 156.891 354.077 157.789C354.077 158.935 354.898 159.631 357.35 159.631H360.91C365.739 159.631 368.273 161.104 368.273 164.581C368.273 168.55 364.1 171.66 357.556 171.66C352.769 171.66 349.208 169.939 349.208 166.423C349.208 164.745 350.231 163.273 352.073 162.127Z" fill="white"></path>
    </g>
    <path fill-rule="evenodd" clip-rule="evenodd" d="M253.598 150.075C255.028 150.035 255.972 150.009 256.296 150.002C256.317 149.995 256.337 149.986 256.357 149.977C256.379 149.967 256.402 149.958 256.426 149.95C256.424 145.433 256.055 141.008 255.496 136.642C255.496 136.783 251.467 137.696 246.332 138.8C246.965 138.156 247.721 137.277 248.328 136.233C249.549 134.132 250.114 131.594 250.163 131.376L250.165 131.364C250.267 130.867 249.951 130.377 249.453 130.271C248.961 130.152 248.463 130.483 248.359 130.983C248.355 131.006 247.836 133.408 246.732 135.304C246.471 135.752 246.176 136.169 245.874 136.544C245.988 135.575 246.078 134.431 246.078 133.217C246.078 129.961 245.435 127.525 245.382 127.326L245.38 127.317C245.244 126.825 244.744 126.542 244.246 126.671C243.755 126.806 243.467 127.312 243.601 127.804C243.607 127.827 244.23 130.154 244.23 133.217C244.23 134.533 244.113 135.762 243.982 136.756C243.049 135.173 242.278 133.417 241.663 131.421C241.513 130.935 240.996 130.669 240.511 130.81C240.024 130.96 239.751 131.475 239.901 131.962C240.784 134.839 241.976 137.269 243.515 139.402C238.33 140.504 232.61 141.69 228.892 142.461C226.959 142.861 225.567 143.15 225.074 143.256L224.556 143.367C219.973 144.35 215.233 145.367 210.603 145.869C207.14 146.246 203.52 146.134 199.945 146.023C198.708 145.985 197.477 145.947 196.259 145.929C196.301 146.889 196.351 147.767 196.411 148.458C196.538 149.927 197.032 150.808 198.117 151.15H200.378C214.381 151.15 244.291 150.33 253.598 150.075ZM170.382 146.058L171.346 146.052L171.578 150.044L171.64 151.15H172.574C172.479 149.919 172.392 148.689 172.306 147.459C172.273 146.988 172.24 146.517 172.207 146.046L173.001 146.039C173.066 147.219 173.131 148.332 173.182 149.22C173.242 150.244 173.284 150.968 173.29 151.15H183.33C184.698 150.907 185.109 149.443 185.694 147.357C185.742 147.189 185.79 147.016 185.84 146.839C185.915 146.577 186.005 146.273 186.103 145.956L188.617 145.944C188.589 146.039 188.561 146.135 188.534 146.23C188.41 146.654 188.286 147.077 188.165 147.502C187.999 148.094 187.761 150.279 188.196 150.752C188.219 150.779 188.246 150.804 188.276 150.829C188.478 151.006 188.721 151.094 188.976 151.15H192.419C192.429 151.148 192.438 151.146 192.448 151.145C192.457 151.143 192.466 151.142 192.476 151.139C192.778 151.071 193.084 150.975 193.328 150.762C193.678 150.458 193.915 148.5 193.963 147.994C194.019 147.4 194.036 146.667 194.04 145.921C194.311 145.921 194.58 145.919 194.849 145.917C195.315 145.917 195.788 145.923 196.259 145.929C196.188 144.342 196.137 142.503 196.089 140.775C196.041 139.058 195.996 137.451 195.938 136.31C195.809 133.706 195.605 130.831 194.99 128.308C194.669 126.994 195.696 126.175 196.14 126.048C197.012 125.798 197.759 125.732 198.512 125.666C199.257 125.6 200.007 125.534 200.888 125.289C202.972 124.712 204.76 123.568 206.551 122.423C207.872 121.578 209.195 120.732 210.638 120.112C212.392 119.362 214.228 118.819 216.088 118.417C216.968 118.226 217.862 118.113 218.754 118C219.581 117.895 220.405 117.79 221.215 117.625C221.644 117.537 222.094 117.208 222.059 116.771C222.038 116.469 221.792 116.233 221.551 116.05C220.9 115.555 220.162 115.2 219.423 114.846C219.077 114.679 218.73 114.512 218.392 114.331C218.205 114.233 217.988 114.064 218.044 113.858C218.067 113.762 218.146 113.692 218.226 113.631C218.884 113.125 219.705 112.962 220.501 112.814C220.612 112.794 220.767 112.776 220.944 112.756C221.586 112.683 222.521 112.575 222.763 112.192C223.146 111.586 222.288 111.301 221.813 111.143C221.794 111.137 221.776 111.131 221.759 111.125C220.587 110.732 219.351 110.584 218.124 110.438C217.707 110.388 217.29 110.338 216.878 110.279C213.98 109.858 211.096 109.31 208.246 108.637C206.416 108.205 204.625 107.635 202.835 107.066C200.649 106.37 198.465 105.675 196.215 105.233C192.461 104.494 188.667 105.039 185.028 106.125C182.903 106.76 180.809 107.577 178.98 108.829C177.149 110.081 175.586 111.8 174.79 113.871C174.238 115.312 174.08 116.864 174.096 118.4C174.1 118.762 174.134 119.129 174.168 119.496C174.264 120.524 174.359 121.553 173.794 122.464C173.052 123.664 171.678 124.133 170.402 124.569C170.209 124.635 170.018 124.7 169.832 124.767C167.121 125.737 166.405 128.762 166.251 131.175C166.176 132.379 166.465 133.656 167.196 134.631C167.475 135.002 167.852 135.277 168.226 135.55C168.792 135.963 169.349 136.37 169.542 137.092C169.639 137.45 169.723 138.356 169.815 139.344C169.886 140.115 169.962 140.936 170.053 141.583C170.135 142.18 170.228 143.648 170.331 145.264C170.348 145.526 170.365 145.792 170.382 146.058ZM170.382 146.058L170.378 146.058C160.313 146.14 150.249 146.221 140.159 146.221H104.776H84.2757C72.3173 146.221 62.1777 143.8 54.7423 141.035C56.2548 138.921 57.434 136.514 58.3048 133.673C58.4548 133.185 58.1819 132.671 57.6944 132.521C57.2069 132.375 56.6902 132.644 56.5423 133.131C55.9298 135.127 55.159 136.885 54.2236 138.469C54.0902 137.473 53.9736 136.244 53.9736 134.927C53.9736 131.999 54.5449 129.743 54.5987 129.531C54.6012 129.521 54.6026 129.515 54.6027 129.514C54.7361 129.023 54.4465 128.517 53.9569 128.381C53.4673 128.254 52.9569 128.535 52.8236 129.027C52.7944 129.129 52.1298 131.602 52.1298 134.927C52.1298 136.142 52.2194 137.283 52.334 138.252C52.0319 137.877 51.734 137.462 51.4736 137.014C50.3935 135.161 49.8698 132.804 49.8453 132.693L49.8444 132.689C49.7402 132.194 49.2507 131.887 48.7527 131.981C48.2548 132.087 47.934 132.577 48.0423 133.075C48.0653 133.185 48.6277 135.794 49.8777 137.942C50.2173 138.523 50.6027 139.05 50.9861 139.517C48.8402 138.575 46.9965 137.633 45.5298 136.775C45.0882 140.242 44.7673 143.746 44.6507 147.302C46.2653 148.098 48.1152 148.256 49.9152 148.383C62.1777 149.242 74.4569 149.912 86.7402 150.392C102.099 150.992 117.465 151.294 132.834 151.298C140.519 151.3 148.203 151.227 155.888 151.081C157.121 151.056 169.917 151.012 170.859 151.148C170.682 150.602 170.524 148.3 170.382 146.058ZM195.386 199.956C219.388 197.485 244.409 180.802 253.536 174.167C253.871 172.733 254.171 171.289 254.455 169.837C247.826 171.675 239.961 172.523 233.238 171.033C229.318 170.165 225.529 168.728 221.74 167.291C215.735 165.012 209.733 162.736 203.226 162.733C196.148 162.729 189.456 165.514 182.881 168.25C182.11 168.571 181.34 168.891 180.571 169.206C159.406 177.881 137.123 171.38 115.694 165.128C109.946 163.451 104.259 161.791 98.6715 160.448C93.8819 159.294 44.7028 154.044 44.7673 155.15C44.9319 157.942 45.1986 160.706 45.5486 163.446C56.2903 163.279 73.159 163.419 85.2757 165.133C104.151 167.804 122.505 174.677 138.082 185.112C153.136 195.196 175.359 202.017 195.386 199.956ZM171.109 234.631C162.371 241.45 156.359 248.483 152.34 255.821C192.549 255.131 227.315 231.95 244.651 198.314C239.586 197.95 234.478 198.181 229.519 199.267C218.474 201.689 208.611 207.567 199.455 213.998C189.888 220.717 180.342 227.427 171.109 234.631ZM139.713 242.277C142.157 242.758 144.638 241.827 146.924 238.456C152.346 230.456 156.013 218.887 153.59 209.798C150.198 197.08 124.423 195.532 109.586 194.641C108.576 194.58 107.617 194.522 106.719 194.464C97.1444 193.846 92.1507 195.985 101.149 202.275C111.924 209.802 119.924 219.144 126.451 229.167L126.544 229.31C129.043 233.15 134.286 241.205 139.713 242.277ZM70.6654 218.48C70.4834 218.576 70.3014 218.673 70.1194 218.769C81.9632 232.596 97.3048 243.279 114.757 249.569C110.992 234.914 99.5173 211.385 85.9902 212.425C81.8548 212.742 78.0382 214.669 74.3423 216.558C73.1178 217.184 71.8917 217.832 70.6654 218.48ZM51.6486 170.787C50.0027 170.904 48.4007 171.219 46.8278 171.608C49.3903 183.919 54.1798 195.392 60.6194 205.742C66.0295 201.87 71.7746 198.375 77.4575 194.918C80.1713 193.267 82.871 191.625 85.5132 189.954C87.8507 188.475 90.4444 186.589 90.6236 183.829C90.759 181.756 89.4257 179.86 87.8798 178.473C79.5652 171.014 62.1652 170.025 51.6486 170.787ZM77.334 86.4166C74.2382 85.802 70.5069 85.1749 67.4902 84.6749C64.5777 88.3499 61.9673 92.2645 59.5507 96.3041H241.617C239.971 93.5353 238.244 90.8207 236.361 88.2207C231.392 91.0978 222.355 93.2895 215.782 93.2895H155.196V91.0166C155.196 90.9082 155.103 90.8208 154.99 90.8208H154.428L154.082 87.8353V85.2978C154.082 85.1916 153.99 85.102 153.876 85.102H153.344V77.1145L226.738 76.8853C226.415 76.5485 226.092 76.2102 225.77 75.872C224.521 74.5593 223.271 73.2469 221.936 72.0228L221.957 73.4666H218.936V69.2958C217.069 67.7083 215.107 66.2312 213.13 64.7728C206.505 63.3478 196.063 60.9958 187.399 58.5666C175.042 55.1104 157.001 48.9749 152.488 47.4249V47.4166C152.482 47.0124 152.153 46.6812 151.746 46.6812H151.742C151.728 46.6812 151.715 46.6728 151.701 46.6728H151.19H149.832H149.09C148.682 46.6728 148.346 47.0062 148.346 47.4166V47.4874C144.388 48.8437 126.044 55.0916 113.626 58.5666C104.961 60.9916 94.5256 63.3416 87.8986 64.7687C85.9194 66.2291 83.9548 67.7083 82.0861 69.2958V73.4666H79.0673L79.084 72.0228C77.6366 73.3502 76.2824 74.7749 74.9284 76.1994C74.6375 76.5055 74.3466 76.8115 74.0548 77.1166H74.9694V80.0416C74.4465 79.727 73.8902 79.452 73.309 79.2187V77.8728C72.7802 78.4383 72.286 79.0345 71.7918 79.6306C71.4722 80.0163 71.1525 80.4018 70.8236 80.7791C73.6027 81.5353 75.759 83.1645 77.334 86.4166ZM174.73 40.027C217.665 48.9791 251.534 82.8499 260.484 125.785C277.353 206.706 207.213 276.842 126.296 259.973C83.359 251.021 49.4902 217.152 40.5402 174.217C23.6694 93.2957 93.809 23.1562 174.73 40.027ZM149.664 120.786C152.881 120.786 154.427 119.355 154.427 116.655C154.427 113.955 152.76 112.965 149.664 112.965H146.408V120.786H149.664ZM140.572 108.318H150.02C155.62 108.318 160.147 110.384 160.147 116.655C160.147 122.734 155.5 125.434 150.02 125.434H146.408V134.207H140.572V108.318ZM59.2181 108.317H65.2119L66.9994 120.43C67.1517 121.711 67.3203 123.001 67.4896 124.296C67.6771 125.73 67.8652 127.169 68.0327 128.609H68.1931C68.7056 125.869 69.2223 123.13 69.7411 120.43L72.5181 108.317H77.4848L80.2619 120.43C80.7806 123.052 81.2973 125.83 81.814 128.609H81.9681C82.3265 125.83 82.6827 123.09 83.0411 120.43L84.8286 108.317H90.4265L85.8244 134.207H78.4744L75.9327 122.455C75.4973 120.469 75.1786 118.365 74.8994 116.459H74.7452C74.6863 116.811 74.6273 117.171 74.5675 117.535C74.3039 119.139 74.0251 120.836 73.6702 122.455L71.2452 134.207H64.0244L59.2181 108.317ZM97.6724 120.231H100.691C103.745 120.231 105.416 118.923 105.416 116.379C105.416 113.839 103.745 112.964 100.691 112.964H97.6724V120.231ZM105.852 134.206L100.889 124.877H97.6724V134.206H91.8349V108.316H101.166C106.645 108.316 111.131 110.225 111.131 116.379C111.131 120.191 109.306 122.612 106.527 123.843L112.402 134.206H105.852ZM119.979 108.317H113.785V134.207H119.142V124.719C119.142 122.315 118.752 118.81 118.476 116.321L118.476 116.321L118.429 115.902H118.587L120.654 121.898L124.625 131.946H126.965L130.935 121.898L133.081 115.902H133.24C133.199 116.269 133.155 116.664 133.108 117.077L133.108 117.078C132.835 119.486 132.487 122.551 132.487 124.719V134.207H137.927V108.317H131.771L127.562 119.95L126.012 124.477H125.854L124.308 119.95L119.979 108.317Z" fill="white"></path>
    <path d="M76.2307 80.6414C76.2994 80.7268 76.8557 81.2393 77.3307 81.7956C77.7682 82.4081 78.7557 83.5935 78.9932 84.306V77.1164H76.2307V80.6414Z" fill="white"></path>
    <path d="M172.155 57.2142C171.251 56.9267 170.355 56.6392 169.466 56.3517V73.4663H172.155V57.2142Z" fill="white"></path>
    <path d="M183.15 60.5914C182.269 60.331 181.373 60.0664 180.46 59.7914V73.4664H183.15V60.5914Z" fill="white"></path>
    <path d="M166.662 55.4452C165.744 55.1452 164.844 54.8515 163.966 54.5619V73.4661H166.662V55.4452Z" fill="white"></path>
    <path d="M177.657 58.9373C176.761 58.6623 175.863 58.381 174.961 58.0998V73.4664H177.657V58.9373Z" fill="white"></path>
    <path d="M161.161 53.6365C160.221 53.324 159.319 53.024 158.473 52.7386V73.4678H161.161V53.6365Z" fill="white"></path>
    <path d="M216.133 68.5699C215.348 68.4094 214.429 68.2178 213.438 68.0074V73.4678H216.133V68.5699Z" fill="white"></path>
    <path d="M210.632 67.405C209.77 67.2196 208.884 67.0238 207.945 66.8154V73.4675H210.632V67.405Z" fill="white"></path>
    <path d="M205.139 66.2025C204.995 66.1712 204.843 66.1379 204.701 66.1045L203.518 65.817C203.158 65.7337 202.808 65.6545 202.449 65.5712V73.467H205.139V66.2025Z" fill="white"></path>
    <path d="M199.638 64.931C199.135 64.8123 198.64 64.6914 198.129 64.5664L197.565 64.4268C197.358 64.3748 197.154 64.3227 196.95 64.2706V73.4664H199.638V64.931Z" fill="white"></path>
    <path d="M188.645 62.5517C188.645 62.4059 188.733 62.2955 188.799 62.1767C188.052 61.9746 187.285 61.7746 186.558 61.5726C186.362 61.5184 186.154 61.4559 185.956 61.3996V73.4663H188.645V62.5517Z" fill="white"></path>
    <path d="M194.144 63.569C193.244 63.344 192.344 63.119 191.455 62.8877V73.4669H194.144V63.569Z" fill="white"></path>
    <path d="M109.568 62.8884C108.676 63.1175 107.778 63.3425 106.878 63.5696V73.4675H109.568V62.8884Z" fill="white"></path>
    <path d="M112.378 73.4669H115.067V61.4003C114.869 61.4565 114.661 61.519 114.465 61.5732C113.738 61.7753 112.971 61.9753 112.224 62.1773C112.29 62.2961 112.378 62.4044 112.378 62.5523V73.4669Z" fill="white"></path>
    <path d="M104.073 64.2699C103.869 64.3219 103.662 64.3761 103.458 64.4261L102.894 64.5657C102.383 64.6928 101.887 64.8115 101.385 64.9303V73.4678H104.073V64.2699Z" fill="white"></path>
    <path d="M120.563 59.7898C119.652 60.0648 118.754 60.3315 117.873 60.5898V73.4669H120.563V59.7898Z" fill="white"></path>
    <path d="M87.5852 68.0244C86.5686 68.2411 85.6623 68.4327 84.8894 68.5952V73.4661H87.5852V68.0244Z" fill="white"></path>
    <path d="M98.5736 65.5749C98.1403 65.6749 97.7194 65.7728 97.2882 65.8728L96.3278 66.104C96.1799 66.1374 96.0319 66.1707 95.884 66.204V73.4666H98.5736V65.5749Z" fill="white"></path>
    <path d="M93.0805 66.8243C92.1347 67.0347 91.2513 67.2305 90.3909 67.418V73.4659H93.0805V66.8243Z" fill="white"></path>
    <path d="M142.549 52.7422C141.701 53.0256 140.795 53.3276 139.862 53.6381V73.4672H142.549V52.7422Z" fill="white"></path>
    <path d="M137.056 54.5631C136.177 54.8526 135.279 55.1464 134.361 55.4443V73.4672H137.056V54.5631Z" fill="white"></path>
    <path d="M131.557 56.3525C130.665 56.64 129.772 56.9254 128.867 57.2129V73.467H131.557V56.3525Z" fill="white"></path>
    <path d="M126.062 58.0982C125.16 58.3815 124.264 58.6607 123.366 58.9357V73.4669H126.062V58.0982Z" fill="white"></path>
    <path d="M189.351 137.009C189.709 136.066 190.082 135.159 190.328 134.18C190.58 133.178 190.803 132.17 190.995 131.153C191.312 129.486 192.082 125.916 189.187 126.376C187.641 126.609 186.087 126.843 184.591 127.301C182.478 127.951 180.532 129.034 178.714 130.274C177.08 131.382 174.937 132.63 173.701 134.182C172.841 135.264 172.72 136.78 172.666 138.105C172.628 139.103 172.818 142.82 172.999 146.039C177.366 146.005 181.732 145.978 186.101 145.955C186.414 144.934 186.812 143.722 187.122 142.907C187.849 140.934 188.609 138.974 189.351 137.009Z" fill="white"></path>
    <path d="M194.008 143C193.977 141.394 193.804 140.34 193.775 138.731C193.764 138.165 193.506 135.008 193.379 134.463C193.164 133.529 191.833 136.54 191.316 137.75C190.804 138.95 190.458 140.221 190.021 141.454C189.5 142.927 189.052 144.433 188.616 145.944C190.425 145.938 192.231 145.923 194.041 145.921C194.048 144.892 194.023 143.827 194.008 143Z" fill="white"></path>
    <path d="M171.751 139.934C171.726 139.657 171.782 139.159 171.649 138.849C171.617 138.776 171.576 138.713 171.521 138.668C171.353 138.52 171.101 138.632 171.001 138.813C170.853 139.076 170.99 139.499 171.005 139.78C171.021 140.184 171.042 140.588 171.063 140.991C171.117 142.022 171.176 143.053 171.234 144.084C171.271 144.741 171.309 145.397 171.346 146.053C171.632 146.049 171.919 146.047 172.207 146.045C172.203 146.007 172.201 145.97 172.199 145.93C172.055 143.932 171.915 141.932 171.751 139.934Z" fill="white"></path>
    <path d="M81.8784 87.3707C84.9347 88.0061 89.6659 89.5478 93.0805 90.3374C103.245 92.6874 109.997 93.4061 114.755 93.3478L145.639 93.3228V91.0165C145.639 90.9082 145.73 90.8207 145.843 90.8207H146.408L146.753 87.8353V85.2978C146.753 85.1915 146.847 85.1019 146.958 85.1019H147.489V77.1165H81.8784V87.3707Z" fill="white"></path>
    <path d="M153.344 65.9199V73.4678H155.667V51.7969C154.342 51.349 153.284 50.9886 152.488 50.7178V55.3219H152.913V59.3782H153.128V65.9199H153.344Z" fill="white"></path>
    <path d="M145.355 73.4669H147.488V65.919H147.707V59.3794H147.92V55.3211H148.347V50.7857C147.536 51.0607 146.561 51.3919 145.355 51.8002V73.4669Z" fill="white"></path>
    <path d="M217.1 182.515C215.262 173.211 206.444 169.394 197.614 171.113C192.496 172.111 186.481 174.409 182.55 177.901C180.981 179.292 179.169 182.017 179.919 184.255C181.012 187.509 184.61 186.472 187.279 186.136C192.525 185.476 197.869 185.613 203.077 186.528C206.817 187.184 212.298 189.247 215.783 186.886C216.937 186.105 217.542 184.751 217.1 182.515Z" fill="white"></path>
  </g>
</svg>
